<svg xmlns="http://www.w3.org/2000/svg" width="98.063" height="23.946" viewBox="0 0 98.063 23.946">
    <defs>
        <style>
            .cls-1{fill:#253b80}.cls-2{fill:#179bd7}
        </style>
    </defs>
    <g id="PayPal">
        <path id="Path_68836" d="M44.032 6.749h-5.427a.754.754 0 0 0-.745.636L35.666 21.3a.452.452 0 0 0 .448.522H38.7a.754.754 0 0 0 .745-.637l.592-3.753a.754.754 0 0 1 .744-.637H42.5c3.575 0 5.638-1.73 6.176-5.158a4.18 4.18 0 0 0-.692-3.5 5.035 5.035 0 0 0-3.955-1.385zm.626 5.082c-.3 1.947-1.785 1.947-3.223 1.947h-.819l.574-3.637a.452.452 0 0 1 .447-.382h.375c.98 0 1.9 0 2.382.559a1.808 1.808 0 0 1 .263 1.512zm15.6-.063h-2.6a.452.452 0 0 0-.447.382l-.115.727-.182-.263a3.7 3.7 0 0 0-3.069-1.089 5.976 5.976 0 0 0-5.8 5.226 4.9 4.9 0 0 0 .968 3.992 4.066 4.066 0 0 0 3.273 1.322 4.972 4.972 0 0 0 3.6-1.488l-.116.722a.452.452 0 0 0 .446.524h2.341a.754.754 0 0 0 .745-.637l1.4-8.894a.451.451 0 0 0-.445-.522zm-3.622 5.058a2.9 2.9 0 0 1-2.936 2.481 2.013 2.013 0 0 1-2.153-2.526 2.909 2.909 0 0 1 2.912-2.5 2.192 2.192 0 0 1 1.733.708 2.249 2.249 0 0 1 .44 1.838zm17.462-5.058h-2.616a.757.757 0 0 0-.624.331l-3.6 5.305-1.527-5.1a.756.756 0 0 0-.724-.538h-2.568a.452.452 0 0 0-.429.6l2.876 8.441-2.7 3.817a.452.452 0 0 0 .369.714h2.608a.753.753 0 0 0 .62-.324l8.685-12.537a.452.452 0 0 0-.371-.71z" class="cls-1" transform="translate(-7.365 -1.394)"/>
        <path id="Path_68837" d="M92.813 6.749h-5.427a.754.754 0 0 0-.744.636L84.447 21.3a.451.451 0 0 0 .446.522h2.785a.528.528 0 0 0 .521-.446l.623-3.944a.754.754 0 0 1 .744-.637h1.717c3.575 0 5.638-1.73 6.177-5.158a4.177 4.177 0 0 0-.693-3.5 5.03 5.03 0 0 0-3.954-1.385zm.626 5.082c-.3 1.947-1.784 1.947-3.223 1.947H89.4l.575-3.637a.451.451 0 0 1 .446-.382h.375c.979 0 1.9 0 2.382.559a1.809 1.809 0 0 1 .263 1.512zm15.594-.063h-2.6a.45.45 0 0 0-.446.382l-.115.727-.183-.263a3.7 3.7 0 0 0-3.068-1.089 5.975 5.975 0 0 0-5.8 5.226 4.908 4.908 0 0 0 .967 3.992 4.068 4.068 0 0 0 3.273 1.322 4.972 4.972 0 0 0 3.6-1.488l-.116.722a.452.452 0 0 0 .448.524h2.34a.754.754 0 0 0 .744-.637l1.405-8.894a.453.453 0 0 0-.448-.522zm-3.622 5.058a2.9 2.9 0 0 1-2.932 2.481 2.013 2.013 0 0 1-2.153-2.526 2.91 2.91 0 0 1 2.912-2.5 2.192 2.192 0 0 1 1.733.708 2.238 2.238 0 0 1 .44 1.837zm6.686-9.7L109.87 21.3a.451.451 0 0 0 .446.522h2.239a.753.753 0 0 0 .745-.637l2.2-13.914a.452.452 0 0 0-.446-.523h-2.507a.453.453 0 0 0-.446.382z" class="cls-2" transform="translate(-17.439 -1.394)"/>
        <path id="Path_68838" d="M5.985 23.345l.415-2.636-.924-.021H1.061L4.129 1.237a.251.251 0 0 1 .249-.213h7.443c2.471 0 4.176.514 5.066 1.529a3.486 3.486 0 0 1 .813 1.521 5.492 5.492 0 0 1 .006 2.1l-.01.061v.535l.417.236a2.928 2.928 0 0 1 .845.644 3 3 0 0 1 .686 1.538 6.5 6.5 0 0 1-.1 2.231 7.857 7.857 0 0 1-.914 2.526 5.2 5.2 0 0 1-1.448 1.587 5.875 5.875 0 0 1-1.95.88 9.726 9.726 0 0 1-2.438.282h-.579a1.742 1.742 0 0 0-1.723 1.47l-.044.237-.733 4.646-.033.171a.147.147 0 0 1-.046.1.123.123 0 0 1-.076.028H5.985z" class="cls-1" transform="translate(-.219 -.211)"/>
        <path id="Path_68839" d="M19.566 7.667q-.033.213-.076.436c-.982 5.039-4.34 6.78-8.628 6.78H8.678a1.06 1.06 0 0 0-1.048.9l-1.118 7.089-.312 2.01a.559.559 0 0 0 .551.646h3.869a.932.932 0 0 0 .92-.786l.038-.2.729-4.628.047-.254a.931.931 0 0 1 .92-.787h.579c3.752 0 6.69-1.523 7.548-5.932.359-1.842.173-3.379-.776-4.461a3.7 3.7 0 0 0-1.06-.817z" class="cls-2" transform="translate(-1.278 -1.583)"/>
        <path id="Path_68840" fill="#222d65" d="M18.915 7.059a7.742 7.742 0 0 0-.955-.212 12.127 12.127 0 0 0-1.925-.14H10.2a.93.93 0 0 0-.92.787l-1.241 7.86-.036.229a1.06 1.06 0 0 1 1.048-.9h2.184c4.289 0 7.647-1.742 8.628-6.78.029-.149.054-.294.076-.436a5.232 5.232 0 0 0-.807-.34q-.109-.036-.22-.069z" transform="translate(-1.653 -1.385)"/>
        <path id="Path_68841" d="M7.629 6.109a.928.928 0 0 1 .92-.786h5.834a12.128 12.128 0 0 1 1.925.14 7.742 7.742 0 0 1 1.175.28 5.311 5.311 0 0 1 .807.34 4.76 4.76 0 0 0-1.01-4.278C16.17.541 14.166 0 11.6 0H4.159a1.064 1.064 0 0 0-1.051.9l-3.1 19.65a.64.64 0 0 0 .631.74h4.6l1.154-7.32 1.241-7.86z" class="cls-1"/>
    </g>
</svg>
