<svg xmlns="http://www.w3.org/2000/svg" width="72.35" height="47.85" viewBox="0 0 72.35 47.85">
    <defs>
        <style>
            .cls-1{fill:#00579f}
        </style>
    </defs>
    <g id="Group_17583" transform="translate(-692.65 -368.15)">
        <g id="g4158" transform="translate(621.121 274.952)">
            <path id="polygon9" d="M438.267 129.136h-4.76l2.977-18.409h4.76z" class="cls-1" transform="translate(-331.639 -5.346)"/>
            <path id="path11" d="M579.457 105.831a11.73 11.73 0 0 0-4.269-.784c-4.7 0-8.011 2.507-8.031 6.09-.039 2.644 2.37 4.113 4.172 4.994 1.842.9 2.468 1.489 2.468 2.292-.019 1.233-1.488 1.8-2.859 1.8a9.473 9.473 0 0 1-4.466-.979l-.627-.294-.666 4.132a14.486 14.486 0 0 0 5.309.98c4.994 0 8.246-2.468 8.285-6.287.019-2.1-1.253-3.7-4-5.013-1.665-.842-2.684-1.41-2.684-2.272.02-.783.862-1.586 2.742-1.586a8.088 8.088 0 0 1 3.546.7l.43.2.647-3.975z" class="cls-1" transform="translate(-455.574)"/>
            <path id="path13" d="M797.886 122.614c.392-1.058 1.9-5.151 1.9-5.151-.02.039.391-1.077.626-1.762l.333 1.586s.9 4.406 1.1 5.327zm5.875-11.887h-3.681a2.349 2.349 0 0 0-2.488 1.527l-7.07 16.881h4.994l1-2.761h6.111c.137.646.568 2.761.568 2.761h4.405l-3.84-18.409z" class="cls-1" transform="translate(-667.677 -5.346)"/>
            <path id="path15" d="M177.587 110.727l-4.662 12.553-.509-2.546a14.09 14.09 0 0 0-6.581-7.716l4.27 16.1h5.033l7.482-18.389z" class="cls-1" transform="translate(-79.695 -5.345)"/>
            <path id="path17" fill="#faa61a" d="M88.9 110.727h-7.656l-.078.372c5.974 1.528 9.93 5.21 11.556 9.636l-1.665-8.46a1.97 1.97 0 0 0-2.154-1.547z" transform="translate(0 -5.346)"/>
        </g>
        <path id="Rectangle_1299" fill="none" d="M0 0H72.35V47.85H0z" transform="translate(692.65 368.15)"/>
    </g>
</svg>
